HIERARCHY
ROOT reference
{
  OFFSET 0 0 0
  CHANNELS 6 Xposition Yposition Zposition Zrotation Xrotation Yrotation
  JOINT Hips
  {
    OFFSET 24.0629 84.802 75.9527
    CHANNELS 6 Xposition Yposition Zposition Zrotation Xrotation Yrotation
    JOINT Spine
    {
      OFFSET 0 7.57377 0
      CHANNELS 6 Xposition Yposition Zposition Zrotation Xrotation Yrotation
      JOINT Spine1
      {
        OFFSET 0 21.6353 0
        CHANNELS 6 Xposition Yposition Zposition Zrotation Xrotation Yrotation
        JOINT Neck
        {
          OFFSET 0 21.5464 1.95876
          CHANNELS 6 Xposition Yposition Zposition Zrotation Xrotation Yrotation
          JOINT Head
          {
            OFFSET 0 12.9308 -1.84726
            CHANNELS 6 Xposition Yposition Zposition Zrotation Xrotation Yrotation
            End Site
            {
              OFFSET 0 23.0907 0
            }
          }
        }
        JOINT LeftShoulder
        {
          OFFSET 3.70822 19.5981 -0.368577
          CHANNELS 6 Xposition Yposition Zposition Zrotation Xrotation Yrotation
          JOINT LeftArm
          {
            OFFSET 11.1726 0 0
            CHANNELS 6 Xposition Yposition Zposition Zrotation Xrotation Yrotation
            JOINT LeftForeArm
            {
              OFFSET 28.6421 0 0
              CHANNELS 6 Xposition Yposition Zposition Zrotation Xrotation Yrotation
              JOINT LeftHand
              {
                OFFSET 23.9346 0 0
                CHANNELS 6 Xposition Yposition Zposition Zrotation Xrotation Yrotation
                End Site
                {
                  OFFSET 13.8545 0 0
                }
              }
            }
          }
        }
        JOINT RightShoulder
        {
          OFFSET -3.63664 19.5981 -0.368577
          CHANNELS 6 Xposition Yposition Zposition Zrotation Xrotation Yrotation
          JOINT RightArm
          {
            OFFSET -11.1726 0 0
            CHANNELS 6 Xposition Yposition Zposition Zrotation Xrotation Yrotation
            JOINT RightForeArm
            {
              OFFSET -28.6421 0 0
              CHANNELS 6 Xposition Yposition Zposition Zrotation Xrotation Yrotation
              JOINT RightHand
              {
                OFFSET -23.9346 0 0
                CHANNELS 6 Xposition Yposition Zposition Zrotation Xrotation Yrotation
                End Site
                {
                  OFFSET -13.8545 0 0
                }
              }
            }
          }
        }
      }
    }
    JOINT LeftUpLeg
    {
      OFFSET 9.2363 0 0
      CHANNELS 6 Xposition Yposition Zposition Zrotation Xrotation Yrotation
      JOINT LeftLeg
      {
        OFFSET 0 -40.7061 0
        CHANNELS 6 Xposition Yposition Zposition Zrotation Xrotation Yrotation
        JOINT LeftFoot
        {
          OFFSET 0 -40.9975 0
          CHANNELS 6 Xposition Yposition Zposition Zrotation Xrotation Yrotation
          JOINT LeftToeBase
          {
            OFFSET 0 -6.00359 13.8545
            CHANNELS 6 Xposition Yposition Zposition Zrotation Xrotation Yrotation
            End Site
            {
              OFFSET 0 0 3.69452
            }
          }
        }
      }
    }
    JOINT RightUpLeg
    {
      OFFSET -9.2363 0 0
      CHANNELS 6 Xposition Yposition Zposition Zrotation Xrotation Yrotation
      JOINT RightLeg
      {
        OFFSET 0 -40.7061 0
        CHANNELS 6 Xposition Yposition Zposition Zrotation Xrotation Yrotation
        JOINT RightFoot
        {
          OFFSET 0 -40.9975 0
          CHANNELS 6 Xposition Yposition Zposition Zrotation Xrotation Yrotation
          JOINT RightToeBase
          {
            OFFSET 0 -6.00359 13.8545
            CHANNELS 6 Xposition Yposition Zposition Zrotation Xrotation Yrotation
            End Site
            {
              OFFSET 0 0 3.69452
            }
          }
        }
      }
    }
  }
}
MOTION
Frames:	10
Frame Time:	0.004
0 0 0 0 0 -0 -5.2066 81.2719 -185.568 0.12248 0.169125 8.42528 0 7.57377 0 -3.03668 -6.90759 -0.052814 0 21.6353 -2.84217e-014 1.74966 -4.58726 0.216545 3.55271e-015 21.5464 1.95876 -2.92483 13.712 4.37293 -7.10543e-015 12.9308 -1.84726 2.77056 20.0096 4.52933 3.70822 19.5981 -0.368577 16.7792 -1.61586 -11.0667 11.1726 0 0 -20.3917 4.1156 0.395187 28.6421 0 0 3.95952 -4.57409 -0.859945 23.9346 0 0 18.6398 -5.00337 -2.86032 -3.63664 19.5981 -0.368577 -16.6224 -0.438594 -5.12598 -11.1726 0 0 19.2824 -1.21613 9.35183 -28.6421 0 0 -1.1902 1.8798 -5.13369 -23.9346 -2.84217e-014 -2.84217e-014 -20.2016 2.3767 -3.085 9.2363 0 -2.84217e-014 -0.259852 0.0736667 1.86661 0 -40.7061 0 0.474736 3.3462 4.54457 0 -40.9975 0 2.5278 -14.8367 -14.1816 0 -6.00359 13.8545 -1.46604e-015 1.59028e-015 -9.93923e-017 -9.2363 -1.42109e-014 0 -1.97523 1.40436 0.561624 0 -40.7061 -2.84217e-014 3.56647 6.23438 1.80387 3.55271e-015 -40.9975 0 -16.3674 -14.1872 -15.669 0 -6.00359 13.8545 9.93923e-016 -1.59028e-015 3.97569e-016 
0 0 0 0 0 -0 -5.2066 81.2719 -185.557 0.135987 0.154246 8.43978 0 7.57377 0 -3.00983 -6.88434 -0.0528114 -3.55271e-015 21.6353 -2.84217e-014 1.70704 -4.57293 0.209365 0 21.5464 1.95876 -2.91257 13.7279 4.39285 -3.55271e-015 12.9308 -1.84726 2.71389 20.0169 4.55115 3.70822 19.5981 -0.368577 16.7666 -1.58894 -11.0666 11.1726 2.84217e-014 -2.84217e-014 -20.3899 4.11561 0.370472 28.6421 0 -2.84217e-014 3.92045 -4.56288 -0.849813 23.9346 0 0 18.6986 -5.00337 -2.86082 -3.63664 19.5981 -0.368577 -16.6245 -0.464759 -5.10456 -11.1726 -2.84217e-014 -2.84217e-014 19.2785 -1.19526 9.33019 -28.6421 2.84217e-014 -2.84217e-014 -1.18967 1.88574 -5.13371 -23.9346 0 0 -20.2024 2.3782 -3.0623 9.2363 1.42109e-014 2.84217e-014 -0.261315 0.0736627 1.95839 0 -40.7061 0 0.475259 3.37864 4.45363 0 -40.9975 0 2.53063 -14.8616 -14.1973 8.88178e-016 -6.00359 13.8545 7.45443e-016 1.59028e-015 2.98177e-016 -9.2363 1.42109e-014 2.84217e-014 -1.99631 1.44237 0.682157 0 -40.7061 2.84217e-014 3.60732 6.21428 1.7914 -3.55271e-015 -40.9975 0 -16.4498 -14.1682 -15.7937 0 -6.00359 13.8545 1.09332e-015 0 -0 
0 0 0 0 0 -0 -5.20858 81.2719 -185.552 0.143546 0.147205 8.45242 0 7.57377 0 -2.98847 -6.86978 -0.0528098 0 21.6353 -2.84217e-014 1.67356 -4.56884 0.202648 0 21.5464 1.95876 -2.92153 13.7537 4.40439 -7.10543e-015 12.9308 -1.84726 2.70669 19.9865 4.56366 3.70822 19.5981 -0.368577 16.7666 -1.57747 -11.0665 11.1726 0 -2.84217e-014 -20.3891 4.11849 0.358977 28.6421 0 0 3.89512 -4.56865 -0.841498 23.9346 0 2.84217e-014 18.7366 -5.01282 -2.87456 -3.63664 19.5981 -0.368577 -16.6251 -0.47235 -5.08826 -11.1726 0 0 19.2812 -1.2142 9.31125 -28.6421 -2.84217e-014 0 -1.18865 1.9002 -5.12545 -23.9346 0 0 -20.2024 2.38968 -3.0471 9.2363 0 0 -0.273145 0.07366 2.0191 0 -40.7061 2.84217e-014 0.488412 3.38403 4.60169 -7.10543e-015 -40.9975 0 2.4701 -14.8628 -14.4374 0 -6.00359 13.8545 9.19379e-016 1.59028e-015 -9.93923e-017 -9.2363 0 2.84217e-014 -2.00439 1.45375 0.7297 0 -40.7061 -2.84217e-014 3.61727 6.21781 1.77603 7.10543e-015 -40.9975 0 -16.4498 -14.1653 -15.8258 0 -6.00359 13.8545 3.47873e-015 0 -0 
0 0 0 0 0 -0 -5.21033 81.2719 -185.546 0.147122 0.136327 8.46716 3.55271e-015 7.57377 0 -2.97342 -6.8541 -0.052808 0 21.6353 2.84217e-014 1.65073 -4.56252 0.198523 0 21.5464 1.95876 -2.8976 13.7653 4.41308 -3.55271e-015 12.9308 -1.84726 2.65313 19.9802 4.57383 3.70822 19.5981 -0.368577 16.7615 -1.55613 -11.07 11.1726 0 0 -20.377 4.0785 0.334667 28.6421 0 0 3.85526 -4.53969 -0.837467 23.9346 0 -2.84217e-014 18.7669 -4.98888 -2.89763 -3.63664 19.5981 -0.368577 -16.6254 -0.47397 -5.07363 -11.1726 0 0 19.2792 -1.21716 9.28683 -28.6421 0 0 -1.19325 1.89524 -5.11137 -23.9346 -2.84217e-014 2.84217e-014 -20.2041 2.38636 -3.05656 9.2363 -1.42109e-014 -2.84217e-014 -0.267391 0.072781 2.08674 0 -40.7061 2.84217e-014 0.489994 3.40495 4.5636 0 -40.9975 0 2.44966 -14.8851 -14.4743 0 -6.00359 13.8545 1.51573e-015 -4.77083e-015 9.93923e-017 -9.2363 0 0 -2.00136 1.47326 0.751196 7.10543e-015 -40.7061 0 3.61667 6.21513 1.75952 0 -40.9975 -2.84217e-014 -16.4268 -14.172 -15.8408 -7.10543e-015 -6.00359 13.8545 9.93923e-016 -1.59028e-015 3.97569e-016 
0 0 0 0 0 -0 -5.21204 81.2719 -185.544 0.156258 0.13718 8.48189 -3.55271e-015 7.57377 2.84217e-014 -2.95481 -6.84461 -0.052807 0 21.6353 -2.84217e-014 1.61052 -4.56558 0.18824 -3.55271e-015 21.5464 1.95876 -2.89736 13.7836 4.41655 7.10543e-015 12.9308 -1.84726 2.64972 19.9718 4.57729 3.70822 19.5981 -0.368577 16.7683 -1.56922 -11.0709 11.1726 0 0 -20.387 4.11216 0.337673 28.6421 0 2.84217e-014 3.84189 -4.53616 -0.827734 23.9346 0 0 18.7173 -4.98927 -2.92662 -3.63664 19.5981 -0.368577 -16.621 -0.473237 -5.06202 -11.1726 -2.84217e-014 0 19.2912 -1.26394 9.28288 -28.6421 2.84217e-014 -2.84217e-014 -1.2044 1.92303 -5.10553 -23.9346 0 -2.84217e-014 -20.1736 2.41194 -3.05136 9.2363 0 0 -0.274299 0.059809 2.14191 -7.10543e-015 -40.7061 0 0.494918 3.44442 4.36875 7.10543e-015 -40.9975 0 2.47018 -14.8686 -14.3428 0 -6.00359 13.8545 -1.2424e-015 1.59028e-015 -3.97569e-016 -9.2363 0 0 -2.0174 1.48011 0.791398 0 -40.7061 0 3.6362 6.21162 1.75756 7.10543e-015 -40.9975 2.84217e-014 -16.4559 -14.1719 -15.8875 0 -6.00359 13.8545 -1.59028e-015 1.59028e-015 7.95139e-016 
0 0 0 0 0 -0 -5.21375 81.2719 -185.541 0.166612 0.134416 8.48983 -3.55271e-015 7.57377 0 -2.86442 -6.82486 -0.044168 0 21.6353 0 1.43526 -4.56858 0.184177 3.55271e-015 21.5464 1.95876 -2.81173 13.7745 4.42129 7.10543e-015 12.9308 -1.84726 2.63007 19.9912 4.58067 3.70822 19.5981 -0.368577 16.861 -1.57574 -11.0713 11.1726 2.84217e-014 0 -20.4124 4.13935 0.316944 28.6421 0 0 3.81508 -4.52046 -0.820959 23.9346 -2.84217e-014 0 18.7719 -4.9801 -2.95503 -3.63664 19.5981 -0.368577 -16.525 -0.466686 -5.08987 -11.1726 0 -2.84217e-014 19.2618 -1.27589 9.30612 -28.6421 0 0 -1.19539 1.93067 -5.0926 -23.9346 -2.84217e-014 -2.84217e-014 -20.1952 2.42036 -3.04924 9.2363 0 0 -0.300772 0.053103 2.18921 0 -40.7061 -2.84217e-014 0.51938 3.45561 4.43393 -7.10543e-015 -40.9975 0 2.40711 -14.8606 -14.4754 8.88178e-016 -6.00359 13.8545 0 1.59028e-015 -0 -9.2363 -1.42109e-014 0 -2.04195 1.48839 0.80664 0 -40.7061 -2.84217e-014 3.65808 6.20771 1.79098 -7.10543e-015 -40.9975 0 -16.4405 -14.1704 -15.9422 0 -6.00359 13.8545 2.08724e-015 3.18055e-015 3.97569e-016 
0 0 0 0 0 -0 -5.21548 81.2719 -185.536 0.176302 0.125397 8.51009 3.55271e-015 7.57377 -2.84217e-014 -2.86267 -6.81045 -0.052921 3.55271e-015 21.6353 -2.84217e-014 1.42556 -4.56196 0.174848 0 21.5464 1.95876 -2.81673 13.8365 4.4096 7.10543e-015 12.9308 -1.84726 2.59476 19.9076 4.57019 3.70822 19.5981 -0.368577 16.8591 -1.55628 -11.0717 11.1726 0 -2.84217e-014 -20.4163 4.17237 0.302448 28.6421 -2.84217e-014 0 3.79811 -4.53106 -0.805736 23.9346 0 0 18.7801 -4.99501 -2.97611 -3.63664 19.5981 -0.368577 -16.5421 -0.444126 -5.08144 -11.1726 -2.84217e-014 2.84217e-014 19.2806 -1.3344 9.30502 -28.6421 0 0 -1.19844 1.94683 -5.08448 -23.9346 0 -2.84217e-014 -20.2144 2.43398 -3.0337 9.2363 0 -2.84217e-014 -0.301348 0.046453 2.24034 0 -40.7061 2.84217e-014 0.513723 3.50222 4.35603 -7.10543e-015 -40.9975 2.84217e-014 2.42439 -14.8775 -14.4373 8.88178e-016 -6.00359 13.8545 9.19379e-016 0 -0 -9.2363 0 0 -2.05173 1.50773 0.858497 -3.55271e-015 -40.7061 0 3.67492 6.20421 1.76322 3.55271e-015 -40.9975 0 -16.4362 -14.1698 -15.9834 0 -6.00359 13.8545 -1.2921e-015 1.59028e-015 -0 
0 0 0 0 0 -0 -5.21727 81.2719 -185.531 0.175621 0.112723 8.53569 0 7.57377 0 -2.84458 -6.79302 -0.063716 0 21.6353 0 1.4024 -4.55115 0.161116 0 21.5464 1.95876 -2.79565 13.8509 4.4275 0 12.9308 -1.84726 2.55136 19.8831 4.59004 3.70822 19.5981 -0.368577 16.8495 -1.55718 -11.0731 11.1726 0 -2.84217e-014 -20.4142 4.21848 0.290261 28.6421 2.84217e-014 0 3.79746 -4.53813 -0.795649 23.9346 -2.84217e-014 0 18.7797 -5.00397 -2.98569 -3.63664 19.5981 -0.368577 -16.5318 -0.446883 -5.07635 -11.1726 -2.84217e-014 -2.84217e-014 19.2658 -1.32476 9.30493 -28.6421 0 2.84217e-014 -1.20601 1.93308 -5.07675 -23.9346 0 -2.84217e-014 -20.2336 2.41881 -3.02307 9.2363 -1.42109e-014 0 -0.293043 0.040908 2.32434 7.10543e-015 -40.7061 2.84217e-014 0.522802 3.53303 4.231 0 -40.9975 -2.84217e-014 2.35396 -14.8564 -14.4375 0 -6.00359 13.8545 6.70898e-016 0 1.98785e-016 -9.2363 0 0 -2.04341 1.52653 0.876763 3.55271e-015 -40.7061 0 3.68276 6.2015 1.70534 0 -40.9975 0 -16.4156 -14.1731 -15.9622 3.55271e-015 -6.00359 13.8545 2.38542e-015 0 -0 
0 0 0 0 0 -0 -5.21958 81.2719 -185.528 0.178882 0.109272 8.55882 0 7.57377 -2.84217e-014 -2.83548 -6.78447 -0.073752 0 21.6353 0 1.38942 -4.53963 0.149767 3.55271e-015 21.5464 1.95876 -2.81709 13.858 4.43704 3.55271e-015 12.9308 -1.84726 2.55978 19.8728 4.60024 3.70822 19.5981 -0.368577 16.8349 -1.55747 -11.0778 11.1726 -2.84217e-014 0 -20.4199 4.33128 0.286722 28.6421 -2.84217e-014 0 3.8015 -4.57654 -0.784258 23.9346 -2.84217e-014 0 18.766 -5.03849 -2.96234 -3.63664 19.5981 -0.368577 -16.5448 -0.444723 -5.07509 -11.1726 0 0 19.2716 -1.34813 9.30539 -28.6421 2.84217e-014 0 -1.20819 1.93833 -5.0721 -23.9346 2.84217e-014 0 -20.2877 2.42188 -3.00282 9.2363 1.42109e-014 -2.84217e-014 -0.295232 0.023009 2.38142 7.10543e-015 -40.7061 -2.84217e-014 0.519308 3.56881 4.29306 0 -40.9975 0 2.41668 -14.921 -14.5747 1.77636e-015 -6.00359 13.8545 1.98785e-016 4.77083e-015 -4.96962e-016 -9.2363 0 0 -2.04897 1.53909 0.8835 -3.55271e-015 -40.7061 0 3.67873 6.20367 1.72058 3.55271e-015 -40.9975 0 -16.4697 -14.1715 -16.0029 3.55271e-015 -6.00359 13.8545 -1.2921e-015 -3.18055e-015 -3.97569e-016 
0 0 0 0 0 -0 -5.23113 81.2719 -185.521 0.184506 0.100828 8.58481 0 7.57377 0 -2.84218 -6.76795 -0.086532 0 21.6353 0 1.39288 -4.53144 0.137392 -3.55271e-015 21.5464 1.95876 -2.81345 13.8582 4.44357 0 12.9308 -1.84726 2.54229 19.885 4.60726 3.70822 19.5981 -0.368577 16.8346 -1.56885 -11.0825 11.1726 0 -2.84217e-014 -20.4293 4.36048 0.280879 28.6421 -2.84217e-014 0 3.78732 -4.568 -0.773108 23.9346 0 0 18.73 -5.03282 -2.98255 -3.63664 19.5981 -0.368577 -16.5521 -0.433374 -5.07475 -11.1726 0 0 19.2728 -1.39384 9.30674 -28.6421 -2.84217e-014 -2.84217e-014 -1.21019 1.93697 -5.0615 -23.9346 0 0 -20.2756 2.41843 -2.99275 9.2363 -2.84217e-014 0 -0.280952 0.00978 2.49632 7.10543e-015 -40.7061 0 0.517065 3.60902 4.11218 7.10543e-015 -40.9975 0 2.36522 -14.8982 -14.5295 0 -6.00359 13.8545 -7.45443e-017 0 1.98785e-016 -9.2363 -1.42109e-014 0 -2.03542 1.55591 0.907572 3.55271e-015 -40.7061 -2.84217e-014 3.67247 6.19756 1.696 -3.55271e-015 -40.9975 0 -16.4464 -14.1662 -16.023 -3.55271e-015 -6.00359 13.8545 -8.94531e-016 3.18055e-015 1.19271e-015 
